<?xml version="1.0" standalone="no"?>
<!DOCTYPE svg PUBLIC "-//W3C//DTD SVG 20010904//EN"
 "http://www.w3.org/TR/2001/REC-SVG-20010904/DTD/svg10.dtd">
<svg version="1.0" xmlns="http://www.w3.org/2000/svg"
 width="853.000000pt" height="1280.000000pt" viewBox="0 0 853.000000 1280.000000"
 preserveAspectRatio="xMidYMid meet">

<g transform="translate(0.000000,1280.000000) scale(0.100000,-0.100000)"
fill="#000000" stroke="none">
<path d="M0 6400 l0 -6400 4265 0 4265 0 0 6400 0 6400 -4265 0 -4265 0 0
-6400z m3156 3252 c-5 -8 13 -10 115 -14 42 -2 82 -8 90 -15 15 -12 85 -28
109 -25 13 3 13 2 0 -7 -8 -6 -13 -11 -10 -12 3 0 15 -2 26 -3 12 -1 34 -12
49 -24 15 -12 38 -22 51 -22 12 0 37 -14 54 -32 30 -29 31 -33 14 -39 -15 -6
-11 -8 13 -8 45 -1 63 -10 56 -28 -4 -10 -2 -14 4 -10 6 4 17 -1 24 -10 10
-12 10 -14 2 -9 -8 4 -13 1 -13 -8 0 -9 -5 -16 -12 -16 -6 0 -1 -9 12 -20 18
-16 20 -20 7 -20 -10 0 -17 5 -17 10 0 6 -4 10 -8 10 -5 0 -9 -7 -9 -15 0 -8
6 -15 14 -15 23 0 14 -20 -9 -21 -17 -1 -19 -2 -5 -6 9 -2 17 -12 17 -21 0
-12 -3 -13 -8 -5 -4 6 -20 14 -36 17 -23 4 -26 3 -16 -10 11 -12 7 -13 -21 -8
-23 4 -30 3 -21 -4 9 -6 -2 -8 -32 -7 -30 1 -46 -3 -46 -11 0 -6 -18 -14 -40
-18 -39 -6 -52 -20 -27 -29 6 -3 -5 -3 -27 0 -21 3 -41 2 -45 -4 -3 -5 -36
-17 -73 -27 -37 -10 -89 -33 -115 -52 -26 -19 -54 -34 -60 -34 -7 0 -13 -9
-13 -20 0 -11 -4 -20 -9 -20 -5 0 -7 10 -3 22 3 14 2 19 -6 14 -7 -4 -12 -13
-12 -21 0 -8 -5 -17 -12 -21 -7 -4 -8 -3 -4 4 14 23 -12 12 -30 -13 -10 -14
-25 -23 -32 -20 -10 3 -12 -1 -7 -18 6 -21 5 -21 -16 3 l-22 25 6 -32 c5 -25
3 -33 -8 -33 -17 0 -20 -25 -5 -35 6 -3 5 -15 -2 -30 -13 -28 -17 -29 -38 -14
-12 9 -11 10 5 5 19 -6 19 -5 -1 11 -12 10 -29 33 -39 51 -9 19 -19 31 -22 28
-7 -6 -53 48 -53 63 0 6 5 11 11 11 8 0 8 4 1 13 -14 16 -8 73 12 121 9 21 13
48 10 61 -3 13 -1 26 4 29 6 3 7 20 2 41 -4 19 -5 35 -1 35 10 0 10 64 0 70
-18 12 4 80 37 117 39 44 46 67 9 33 -14 -13 -25 -19 -25 -12 0 18 53 49 98
56 24 3 51 10 60 16 9 5 32 15 50 22 17 7 32 17 32 21 0 5 5 5 10 2 6 -4 8 -9
6 -13z m634 -277 c0 -8 -7 -15 -15 -15 -9 0 -12 6 -9 15 4 8 10 15 15 15 5 0
9 -7 9 -15z m-143 -382 c13 -24 23 -48 20 -55 -2 -7 -21 21 -41 62 -37 75 -26
71 21 -7z m330 -19 c-3 -3 -12 -4 -19 -1 -8 3 -5 6 6 6 11 1 17 -2 13 -5z
m-237 -64 c0 -5 -2 -10 -4 -10 -3 0 -8 5 -11 10 -3 6 -1 10 4 10 6 0 11 -4 11
-10z m-3 -26 c-3 -3 -12 -4 -19 -1 -8 3 -5 6 6 6 11 1 17 -2 13 -5z m-37 -54
c0 -13 -1 -13 -10 0 -5 8 -10 22 -10 30 0 13 1 13 10 0 5 -8 10 -22 10 -30z
m370 -2 c0 -9 4 -8 10 2 8 12 10 10 11 -10 1 -17 3 -19 6 -7 6 21 22 22 30 1
4 -12 7 -13 14 -3 4 8 12 10 16 5 12 -12 -27 -36 -58 -36 -14 0 -32 -7 -39
-15 -21 -25 -59 -19 -71 12 -13 34 -6 50 23 56 44 8 58 7 58 -5z m-990 -18 c0
-5 -13 -10 -30 -10 -16 0 -30 5 -30 10 0 6 14 10 30 10 17 0 30 -4 30 -10z
m-220 -64 c0 -5 -7 -1 -15 10 -8 10 -14 24 -14 29 0 6 6 1 14 -9 8 -11 15 -24
15 -30z m70 24 c0 -5 -7 -10 -16 -10 -13 0 -15 -7 -11 -35 3 -21 2 -33 -4 -30
-13 9 -11 59 3 73 15 15 28 16 28 2z m160 -36 c0 -37 30 -163 41 -169 5 -4 4
6 -1 21 -6 15 -9 29 -7 31 7 6 47 -67 47 -85 0 -9 9 -30 19 -46 20 -30 18 -61
-3 -49 -6 3 -7 2 -3 -3 5 -5 12 -9 15 -10 4 0 30 -22 57 -49 58 -56 170 -111
255 -127 48 -9 71 -8 132 6 106 26 151 48 213 107 81 76 122 158 152 304 l8
40 50 0 c38 0 56 5 74 23 27 24 41 28 41 12 0 -5 -7 -10 -15 -10 -8 0 -15 -4
-15 -9 0 -5 -7 -16 -15 -25 -9 -8 -12 -22 -8 -32 5 -13 9 -9 17 17 12 36 40
50 49 24 5 -10 0 -15 -13 -15 -11 0 -20 -4 -20 -10 0 -5 9 -10 20 -10 13 0 20
-7 20 -20 0 -11 8 -25 18 -31 20 -13 18 -63 -2 -56 -6 2 -10 11 -8 21 2 9 -2
16 -7 16 -6 0 -10 -15 -9 -34 l1 -33 29 16 c15 9 28 23 28 30 0 12 2 13 13 2
10 -10 7 -16 -13 -31 -22 -17 -23 -22 -12 -39 16 -28 15 -68 -2 -74 -8 -3 -18
-22 -22 -41 -4 -22 -12 -36 -21 -36 -11 0 -14 -7 -11 -25 4 -18 1 -25 -11 -25
-10 0 -17 -8 -17 -19 0 -10 5 -18 11 -17 5 2 7 1 3 -1 -5 -3 -6 -17 -3 -31 3
-15 2 -21 -1 -14 -5 10 -9 10 -20 1 -11 -9 -14 -8 -14 5 0 9 5 16 11 16 5 0 7
5 4 10 -13 21 -32 9 -33 -20 -1 -26 6 -34 28 -32 3 0 10 -10 17 -24 8 -16 8
-24 1 -24 -6 0 -3 -9 7 -20 17 -18 17 -20 2 -14 -17 6 -21 16 -18 42 1 7 -10
12 -29 12 l-31 0 20 -26 c27 -35 26 -45 -3 -40 -19 3 -23 1 -19 -15 3 -10 9
-16 14 -13 5 3 6 -2 3 -10 -3 -9 -10 -16 -15 -16 -5 0 -9 -4 -9 -10 0 -5 8 -7
18 -4 12 4 13 3 4 -3 -7 -5 -10 -18 -7 -29 3 -10 -4 1 -17 26 -28 56 -30 58
-35 42 -3 -6 -9 -9 -15 -6 -5 3 -12 -4 -15 -15 -5 -18 -8 -19 -21 -9 -13 11
-14 10 -4 -9 31 -60 32 -63 21 -63 -5 0 -7 -4 -4 -10 3 -5 1 -18 -5 -27 -11
-17 -11 -17 -6 0 3 9 1 17 -3 17 -5 0 -7 9 -4 20 3 11 0 20 -6 20 -6 0 -8 7
-4 17 6 15 5 16 -9 3 -9 -8 -14 -18 -12 -22 2 -3 -2 -9 -8 -12 -7 -3 -3 -3 10
0 21 5 33 -10 13 -18 -5 -2 -5 -25 -1 -53 7 -49 7 -49 -11 -27 -10 13 -15 30
-12 39 4 10 2 14 -4 10 -6 -4 -22 8 -37 25 -14 18 -26 27 -26 21 0 -7 6 -18
13 -25 13 -13 47 -76 47 -86 0 -3 -15 12 -33 33 -28 32 -35 36 -40 22 -4 -10
-2 -16 6 -14 7 1 11 -7 10 -18 -1 -10 3 -27 8 -37 6 -12 6 -18 -1 -18 -5 0
-10 3 -10 8 0 4 -11 8 -24 8 -22 2 -23 -1 -16 -26 7 -24 6 -28 -8 -23 -10 5
-13 3 -8 -6 5 -8 3 -11 -5 -10 -8 1 -23 -2 -33 -6 -13 -6 -21 -5 -24 3 -2 6
-11 20 -20 30 -9 10 -14 13 -11 7 13 -22 17 -55 6 -55 -8 0 -7 -4 1 -12 27
-27 10 -27 -25 -1 -20 15 -34 22 -29 16 12 -22 -23 -15 -47 8 -17 17 -18 21
-4 16 31 -11 18 2 -24 23 -26 14 -39 26 -35 35 2 7 -6 21 -20 29 -13 9 -24 12
-24 6 0 -5 5 -10 10 -10 6 0 10 -5 10 -11 0 -6 -9 -8 -22 -4 -19 6 -21 5 -10
-6 16 -17 16 -34 -1 -20 -8 6 -17 8 -20 4 -4 -3 -7 -2 -7 3 0 6 -7 19 -15 30
-14 18 -15 17 -10 -11 5 -27 4 -27 -15 10 -11 22 -18 32 -16 23 3 -10 1 -18
-4 -18 -6 0 -10 6 -11 13 0 9 -2 9 -5 0 -7 -17 -34 -4 -34 16 -1 11 -5 9 -16
-9 -14 -23 -14 -23 -9 -3 5 17 3 22 -8 17 -8 -3 -18 -1 -22 5 -9 15 -28 14
-20 -1 4 -7 -2 -3 -14 10 -11 13 -22 18 -26 12 -9 -15 -28 -12 -22 4 8 20 -4
28 -21 13 -13 -10 -15 -9 -9 6 4 10 2 17 -5 17 -6 0 -1 9 12 20 13 11 29 20
37 20 8 0 28 13 44 29 22 22 29 39 29 68 0 42 -24 128 -41 149 -5 7 -11 23
-13 36 -3 32 -14 48 -29 42 -7 -2 -30 2 -51 11 -21 9 -35 12 -32 7 3 -6 -6
-13 -22 -17 -15 -4 -21 -10 -14 -12 6 -3 12 -9 12 -14 0 -4 -6 -6 -14 -3 -10
4 -13 0 -11 -13 2 -10 4 -23 4 -30 1 -6 7 -18 14 -25 31 -31 47 -65 47 -96 l0
-34 -52 6 c-143 17 -244 23 -253 15 -5 -6 -2 -9 8 -9 25 0 21 -29 -5 -34 -13
-2 -44 -4 -70 -4 -42 1 -49 4 -60 29 -7 16 -16 29 -20 29 -5 0 -8 21 -8 48 0
36 10 66 42 130 26 49 48 80 55 78 7 -3 10 1 7 7 -2 7 32 69 76 137 44 69 83
140 86 160 9 49 10 50 60 50 41 0 44 -2 44 -26z m-190 -64 c0 -5 -4 -10 -10
-10 -5 0 -10 5 -10 10 0 6 5 10 10 10 6 0 10 -4 10 -10z m827 -32 c-3 -8 -6
-5 -6 6 -1 11 2 17 5 13 3 -3 4 -12 1 -19z m516 -5 c-7 -2 -19 -2 -25 0 -7 3
-2 5 12 5 14 0 19 -2 13 -5z m47 -87 c0 -3 -4 -8 -10 -11 -5 -3 -10 -1 -10 4
0 6 5 11 10 11 6 0 10 -2 10 -4z m-30 -15 c0 -6 -4 -13 -10 -16 -5 -3 -10 1
-10 9 0 9 5 16 10 16 6 0 10 -4 10 -9z m-569 -88 c-12 -20 -14 -14 -5 12 4 9
9 14 11 11 3 -2 0 -13 -6 -23z m-1211 -71 c0 -15 -2 -15 -10 -2 -13 20 -13 33
0 25 6 -3 10 -14 10 -23z m1679 -297 c1 -5 -6 -2 -15 7 -10 9 -13 21 -8 29 5
9 9 8 15 -7 4 -10 8 -23 8 -29z m822 29 c21 -26 64 -44 80 -33 10 6 10 9 2 9
-7 0 -13 7 -13 17 0 14 2 14 20 -2 11 -10 20 -26 20 -35 0 -22 -31 -35 -42
-18 -6 10 -8 10 -8 1 0 -18 -47 -16 -54 2 -3 8 -12 15 -21 15 -8 0 -15 3 -15
8 0 4 -3 17 -6 30 -8 26 16 31 37 6z m-1814 -59 c7 -19 5 -21 -32 -29 -22 -5
-26 -4 -15 4 12 8 11 10 -7 10 -12 0 -29 3 -38 6 -9 4 -15 3 -14 -2 3 -18 -1
-34 -9 -34 -7 0 -9 43 -3 58 1 1 26 2 56 2 41 0 57 -4 62 -15z m-140 -37 c-3
-8 -6 -5 -6 6 -1 11 2 17 5 13 3 -3 4 -12 1 -19z m-47 -42 c0 -11 -19 -15 -25
-6 -3 5 1 10 9 10 9 0 16 -2 16 -4z m1064 -52 c3 -8 2 -12 -4 -9 -6 3 -10 10
-10 16 0 14 7 11 14 -7z m-159 -94 c10 -11 16 -20 13 -20 -3 0 -13 9 -23 20
-10 11 -16 20 -13 20 3 0 13 -9 23 -20z m75 -5 c7 -8 8 -15 2 -15 -5 0 -15 7
-22 15 -7 8 -8 15 -2 15 5 0 15 -7 22 -15z m-180 -55 c13 -8 13 -10 -2 -10 -9
0 -20 5 -23 10 -8 13 5 13 25 0z m67 -15 c15 -32 0 -32 -21 0 -12 18 -13 25
-4 25 7 0 18 -11 25 -25z m-127 -15 c0 -5 3 -17 6 -27 4 -13 0 -11 -15 7 -24
30 -27 42 -6 34 8 -4 15 -10 15 -14z m55 -32 c6 -4 2 -8 -7 -8 -10 0 -18 7
-18 17 0 9 3 12 8 7 4 -5 12 -12 17 -16z m-5 -28 c8 -5 11 -10 5 -10 -5 0 -17
5 -25 10 -8 5 -10 10 -5 10 6 0 17 -5 25 -10z m-499 -54 c5 3 9 1 9 -5 0 -5
-3 -11 -7 -14 -10 -5 16 3 36 11 10 4 12 1 6 -8 -8 -13 -2 -12 98 7 15 3 27 1
27 -5 0 -5 10 -8 22 -4 13 3 19 1 15 -5 -4 -6 7 -26 23 -43 34 -36 33 -48 -1
-30 -19 11 -21 10 -16 -4 4 -9 2 -16 -3 -16 -6 0 -10 6 -10 14 0 8 -5 18 -12
22 -7 4 -8 3 -4 -4 4 -7 2 -12 -3 -12 -6 0 -11 -7 -11 -15 0 -8 7 -15 15 -15
8 0 15 -4 15 -10 0 -5 -4 -10 -9 -10 -6 0 -13 5 -16 10 -3 6 -15 10 -26 10
-12 0 -17 4 -13 11 4 8 -3 9 -27 3 -19 -4 -46 -6 -61 -5 -16 1 -28 -4 -28 -11
0 -7 -5 -4 -12 5 -10 13 -29 17 -79 18 -65 1 -108 15 -81 26 6 2 9 9 6 14 -3
6 -11 6 -20 -2 -11 -9 -15 -8 -20 4 -9 24 -1 50 16 53 8 2 28 7 43 10 20 5 31
2 41 -11 11 -15 14 -15 27 -3 19 19 43 27 47 16 2 -4 8 -6 13 -2z m-61 0 c0
-3 -4 -8 -10 -11 -5 -3 -10 -1 -10 4 0 6 5 11 10 11 6 0 10 -2 10 -4z m-150
-20 c0 -8 -5 -18 -11 -22 -6 -3 -8 -16 -5 -28 4 -17 0 -21 -19 -22 -22 -2 -25
2 -25 31 0 33 21 52 42 38 7 -3 8 -1 4 5 -4 7 -2 12 3 12 6 0 11 -6 11 -14z
m460 -6 c0 -5 -2 -10 -4 -10 -3 0 -8 5 -11 10 -3 6 -1 10 4 10 6 0 11 -4 11
-10z m16 -29 c0 -12 -6 -17 -18 -13 -10 2 -18 9 -18 14 0 5 4 7 9 3 5 -3 12
-1 16 5 9 14 11 13 11 -9z m-156 -81 c0 -5 -4 -10 -10 -10 -5 0 -10 5 -10 10
0 6 5 10 10 10 6 0 10 -4 10 -10z m68 -135 c-3 -3 -9 2 -12 12 -6 14 -5 15 5
6 7 -7 10 -15 7 -18z m-103 -56 c-4 -10 -2 -19 3 -19 12 0 24 29 16 41 -3 5 0
9 5 9 6 0 11 -5 11 -11 0 -6 7 -9 15 -5 8 3 15 1 15 -4 0 -6 -6 -10 -14 -10
-20 0 -30 -18 -17 -33 6 -8 6 -18 1 -27 -9 -13 -10 -13 -10 0 0 13 -2 13 -9 0
-6 -8 -8 -17 -5 -21 2 -4 0 -10 -5 -13 -4 -3 -12 21 -15 54 -4 33 -11 60 -16
60 -6 0 -10 5 -10 10 0 7 7 7 20 0 15 -8 19 -17 15 -31z m-37 -10 c-9 -6 -8
-10 5 -15 9 -3 17 -12 17 -20 0 -11 -7 -10 -35 3 -19 9 -35 23 -35 31 0 11 3
12 14 3 10 -9 16 -9 21 -1 4 7 -2 14 -15 17 -16 4 -18 8 -9 14 8 5 21 2 32 -8
13 -13 14 -18 5 -24z m129 -15 c-3 -4 -14 -3 -24 0 -15 6 -15 8 -3 16 16 10
39 -4 27 -16z m31 -29 c-3 -3 -9 2 -12 12 -6 14 -5 15 5 6 7 -7 10 -15 7 -18z
m-177 5 c5 0 9 -8 8 -17 0 -11 -3 -13 -6 -5 -2 6 -8 10 -11 8 -4 -2 -14 3 -22
12 -13 14 -12 15 4 9 10 -4 22 -7 27 -7z m129 -11 c0 -6 -4 -7 -10 -4 -5 3
-10 11 -10 16 0 6 5 7 10 4 6 -3 10 -11 10 -16z m1330 -113 c0 -3 -4 -8 -10
-11 -5 -3 -10 -1 -10 4 0 6 5 11 10 11 6 0 10 -2 10 -4z m-55 -16 c-3 -5 -12
-10 -18 -10 -7 0 -6 4 3 10 19 12 23 12 15 0z m15 -25 c-7 -8 -18 -15 -24 -15
-6 0 -2 7 8 15 25 19 32 19 16 0z m-35 -25 c3 -5 1 -10 -4 -10 -6 0 -11 5 -11
10 0 6 2 10 4 10 3 0 8 -4 11 -10z m29 -34 c-3 -9 -11 -16 -16 -16 -6 0 -5 -6
2 -15 10 -12 8 -17 -11 -25 -19 -8 -14 -9 26 -6 l50 5 -37 -12 c-44 -14 -52
-22 -43 -37 6 -9 9 -9 14 -1 9 14 51 23 51 12 0 -17 -32 -34 -62 -33 -24 1
-28 -2 -18 -8 13 -8 13 -10 1 -10 -8 0 -12 -2 -9 -5 3 -3 27 5 54 17 27 12 54
24 59 27 6 2 2 -5 -8 -17 -18 -20 -18 -21 0 -31 22 -13 3 -14 -29 -2 -16 6
-29 5 -42 -5 -17 -12 -15 -13 18 -7 23 4 36 2 36 -6 0 -6 10 -11 23 -12 21 0
21 -1 2 -8 -11 -5 -29 -19 -40 -31 l-20 -22 35 21 c40 23 89 19 69 -5 -9 -11
-8 -14 2 -14 8 0 4 -9 -10 -24 l-22 -23 23 4 c28 4 53 -10 44 -26 -11 -16 -26
-13 -20 4 4 9 0 15 -10 15 -9 0 -16 -4 -16 -10 0 -5 -8 -10 -17 -10 -15 0 -16
-2 -3 -10 13 -9 13 -11 0 -21 -12 -9 -11 -10 8 -6 12 3 22 1 22 -4 0 -5 -17
-10 -37 -10 -27 -1 -31 -3 -14 -6 13 -3 31 -11 38 -19 12 -12 11 -14 -7 -14
-12 0 -18 5 -15 10 3 6 1 10 -4 10 -6 0 -11 -4 -11 -9 0 -5 -14 -14 -31 -20
-17 -6 -28 -15 -24 -21 5 -8 11 -8 19 -1 7 6 16 8 20 4 4 -4 -3 -15 -16 -25
-23 -17 -22 -17 17 -5 22 6 46 18 53 27 11 13 11 12 3 -7 -16 -33 -14 -35 17
-16 l27 17 -24 -27 c-22 -25 -25 -25 -37 -9 -12 16 -15 16 -41 1 -15 -9 -27
-21 -26 -27 2 -6 -12 -16 -30 -21 -29 -8 -30 -9 -7 -10 15 -1 31 4 38 11 9 9
12 9 12 0 0 -7 0 -15 0 -19 0 -5 -3 -8 -7 -8 -13 0 -72 -47 -77 -62 -8 -20 6
-16 36 12 15 14 30 25 33 25 3 0 15 9 27 20 12 11 16 20 9 20 -7 0 -9 5 -6 10
3 6 1 10 -4 10 -6 0 -11 5 -11 11 0 6 7 8 16 5 9 -4 13 -2 8 5 -4 7 -1 10 7 7
8 -3 13 -12 11 -22 -4 -25 24 -19 46 9 11 14 23 25 28 25 4 0 16 8 26 17 18
16 18 16 12 0 -3 -9 -10 -17 -14 -17 -4 0 -38 -25 -76 -56 -97 -78 -89 -72
-199 -145 -103 -68 -263 -155 -270 -147 -3 3 28 21 69 42 41 20 80 44 88 53 9
12 9 15 1 9 -7 -4 -21 -3 -30 3 -14 7 -8 9 22 6 33 -2 51 4 102 38 42 28 59
44 50 49 -9 6 -9 8 1 8 6 0 12 5 12 10 0 6 -19 0 -42 -12 -24 -12 -49 -21 -56
-19 -8 1 -12 -5 -10 -16 2 -11 -3 -18 -12 -18 -8 0 -39 -10 -69 -22 -56 -24
-78 -30 -48 -12 23 14 22 46 -4 54 -11 4 -23 4 -26 1 -4 -3 1 -6 10 -6 19 0
20 -2 11 -24 -8 -20 -34 -21 -34 -1 0 9 -10 19 -22 24 -20 7 -20 8 -2 15 18 8
18 8 -1 17 -14 6 -6 8 25 4 34 -3 39 -2 20 4 -14 5 -18 9 -10 10 12 1 12 3 1
14 -11 10 -14 10 -18 0 -3 -7 -9 -13 -15 -13 -7 0 -7 5 1 13 6 8 8 17 4 21 -4
4 13 5 37 2 33 -4 40 -2 28 5 -10 5 -18 14 -18 19 0 4 8 7 18 5 9 -1 11 0 4 2
-8 3 -11 13 -8 26 3 12 3 16 0 10 -3 -7 -20 -13 -37 -13 l-32 1 25 14 c24 14
24 14 -23 13 -26 -1 -50 2 -54 5 -5 6 28 12 50 8 4 0 7 4 7 10 0 7 12 8 33 5
29 -6 30 -5 7 4 -17 8 -32 8 -49 0 -13 -6 -26 -8 -29 -5 -3 3 0 5 7 5 7 0 11
6 8 13 -3 8 4 13 22 12 19 0 25 5 23 17 -2 12 8 20 37 28 22 6 42 14 45 19 3
4 -20 0 -51 -10 -64 -22 -84 -18 -29 5 20 8 36 20 36 26 0 6 3 9 8 7 4 -2 17
7 29 20 l22 22 -37 -3 c-20 -2 -45 -7 -54 -11 -11 -4 -18 -3 -18 4 0 6 6 11
14 11 7 0 19 7 26 15 12 14 8 15 -31 9 l-44 -6 40 21 c21 12 48 21 58 21 16 0
17 2 7 15 -14 17 -11 23 21 39 26 13 46 42 36 52 -4 4 -13 2 -19 -4 -17 -17
-33 -15 -18 3 7 8 19 15 26 15 8 0 14 5 14 11 0 6 17 9 42 8 26 -2 43 1 46 9
2 6 14 12 27 12 12 0 28 7 35 15 8 9 9 15 2 15 -6 0 -14 -4 -17 -10 -3 -5 -11
-10 -16 -10 -6 0 -7 5 -4 10 8 13 -1 13 -28 -2 -20 -10 -21 -10 -8 5 7 10 28
17 45 17 17 0 38 5 46 11 11 8 8 9 -14 4 -25 -5 -28 -4 -17 8 6 9 21 13 34 10
17 -4 19 -2 8 5 -11 8 -8 11 15 14 36 4 36 4 28 -16z m1168 -27 c22 -10 25
-15 16 -26 -6 -8 -17 -12 -24 -9 -7 3 -35 -20 -63 -50 -28 -30 -57 -54 -64
-54 -22 0 -41 -27 -130 -190 -191 -351 -291 -526 -378 -667 -51 -81 -105 -177
-119 -213 -31 -76 -75 -250 -91 -365 -20 -141 -69 -361 -110 -486 -59 -183
-64 -218 -52 -345 6 -60 22 -170 36 -244 37 -193 77 -414 77 -428 0 -7 -6 -10
-12 -7 -7 4 -4 -1 7 -10 19 -16 19 -16 -7 -10 -18 5 -28 3 -28 -4 0 -6 5 -11
11 -11 8 0 8 -5 -1 -15 -7 -8 -17 -12 -23 -8 -6 3 -7 1 -3 -6 4 -6 12 -9 17
-6 5 4 9 1 9 -4 0 -6 -8 -11 -17 -11 -10 0 -29 -10 -43 -21 -16 -14 -19 -19
-7 -15 9 3 17 2 17 -3 0 -5 -12 -12 -27 -15 -26 -7 -43 5 -43 32 0 6 -7 12
-15 12 -9 0 -15 -9 -15 -25 0 -24 -13 -34 -23 -17 -2 4 -2 1 -1 -5 2 -7 -1
-13 -7 -13 -6 0 -7 -4 -4 -10 3 -5 -2 -10 -13 -10 -10 0 -24 -10 -30 -22 -6
-13 -11 -17 -11 -10 -1 6 -9 12 -18 12 -15 0 -16 -2 -3 -10 18 -11 8 -23 -13
-15 -24 10 -28 43 -23 192 3 91 0 169 -9 228 -11 69 -11 91 -2 97 8 5 7 8 -5
8 -12 0 -19 12 -24 45 -3 25 -10 45 -13 45 -4 0 -8 6 -9 13 0 6 -3 32 -7 57
-10 64 -13 92 -14 113 -1 9 -9 18 -18 18 -16 1 -16 2 -1 6 26 7 32 113 6 113
-6 0 -6 -6 1 -14 8 -10 9 -16 1 -21 -6 -3 -8 -11 -5 -16 4 -5 -1 -9 -9 -9 -10
0 -13 6 -10 15 4 9 0 15 -10 15 -11 0 -16 9 -16 30 0 34 -20 42 -21 8 0 -22
-1 -22 -9 -3 -8 19 -12 16 -14 -14 -1 -8 -7 -16 -13 -18 -15 -5 -12 20 18 147
30 124 39 142 69 136 25 -5 25 -5 3 6 -26 12 -27 19 -13 62 5 17 19 68 31 114
17 59 27 82 38 81 11 0 12 -2 3 -6 -6 -2 -10 -9 -6 -14 3 -5 1 -9 -5 -9 -6 0
-8 -7 -5 -15 4 -8 0 -22 -7 -31 -12 -14 -11 -16 6 -12 11 2 20 11 20 20 0 10
5 22 12 29 6 6 9 18 6 25 -3 9 2 14 13 15 15 0 15 2 4 6 -8 3 -19 11 -23 17
-6 8 -10 7 -14 -1 -8 -21 -22 -14 -16 8 4 14 12 19 24 16 11 -3 19 -2 20 1 0
4 2 17 5 30 2 12 -1 22 -6 22 -6 0 -10 -9 -10 -20 0 -11 -4 -20 -10 -20 -13 0
-13 5 4 67 8 28 11 54 8 57 -3 3 2 6 11 6 17 0 19 -20 3 -31 -4 -4 6 -8 23
-11 17 -2 31 -1 31 4 0 4 -7 8 -15 8 -8 0 -15 5 -15 10 0 6 5 10 10 10 6 0 10
5 10 10 0 6 -10 10 -23 10 -16 0 -23 6 -24 20 -1 11 2 18 8 15 5 -4 9 -2 9 4
0 5 12 12 28 14 25 4 25 4 -5 6 -29 1 -33 4 -32 29 2 23 2 24 6 5 3 -18 11
-23 34 -23 16 0 29 5 29 10 0 6 8 10 18 11 15 0 14 1 -2 8 -19 7 -19 8 3 14
13 3 20 10 17 15 -3 5 -1 23 4 41 8 28 6 31 -13 32 -12 0 -16 3 -9 6 6 2 12
11 12 18 0 8 9 17 20 20 11 3 20 11 20 16 0 14 -17 11 -33 -6 -12 -11 -17 -12
-21 -2 -3 6 -3 2 0 -10 5 -20 1 -23 -23 -24 -25 0 -26 -1 -8 -9 16 -7 16 -9 4
-9 -9 -1 -20 -8 -23 -17 -4 -11 -2 -15 6 -11 7 2 22 1 33 -4 15 -6 9 -8 -22
-8 l-42 -1 14 48 c8 26 15 50 15 54 0 4 7 5 15 2 8 -4 15 -1 15 5 0 6 -4 11
-10 11 -5 0 -10 4 -10 10 0 5 7 7 15 4 8 -4 15 -2 15 4 0 6 -5 12 -12 14 -18
6 19 138 39 138 17 0 43 24 43 40 0 6 4 9 9 6 15 -10 21 24 8 44 -17 28 -29
25 -21 -5 4 -18 1 -27 -10 -31 -9 -4 -19 -4 -21 -2 -3 3 11 49 30 104 19 54
35 100 35 101 0 2 7 3 15 3 18 0 19 -11 4 -44 -7 -14 -16 -23 -20 -20 -5 3 -9
0 -9 -5 0 -6 9 -11 20 -11 11 0 20 7 20 16 0 10 6 13 18 10 11 -4 22 2 30 14
10 17 9 23 -8 40 -11 11 -22 15 -26 9 -9 -15 -34 9 -27 27 3 8 15 14 28 14 17
0 27 10 40 43 10 23 20 36 22 29 3 -8 0 -19 -6 -25 -16 -16 -14 -25 7 -30 13
-4 11 -5 -5 -6 -13 0 -23 -5 -23 -10 0 -5 -10 -12 -22 -14 -20 -4 -19 -4 5 -6
15 0 27 4 27 9 0 6 10 9 23 9 16 -1 18 -2 5 -6 -18 -5 -23 -15 -12 -26 3 -3
15 3 27 14 11 10 27 19 34 19 8 0 12 4 9 9 -3 5 4 11 15 14 11 3 23 15 26 26
3 11 9 18 14 15 5 -3 9 0 9 5 0 6 25 38 55 71 30 32 57 71 61 85 3 14 12 25
20 25 10 0 11 6 4 25 -6 16 -6 25 0 25 5 0 6 7 3 17 -5 12 -3 14 7 8 10 -6 12
-4 7 8 -3 9 1 18 10 21 8 4 13 13 10 20 -3 8 3 24 14 37 24 28 25 46 2 28 -10
-8 -7 0 7 18 14 17 32 40 40 51 8 11 43 50 76 88 34 38 81 92 105 119 33 39
41 45 36 25 -4 -14 -7 -31 -7 -38 0 -7 -3 -11 -7 -9 -5 3 -9 -16 -10 -42 -2
-44 -1 -45 12 -21 8 14 14 31 15 38 0 7 7 20 15 28 8 9 15 21 15 27 0 7 -4 6
-10 -3 -15 -23 -12 1 6 53 17 49 42 79 30 36 -7 -24 -7 -24 9 -4 9 11 21 19
26 18 5 -2 9 3 9 10 0 8 28 28 63 46 54 29 69 32 117 28 30 -3 67 -11 82 -18z
m-1112 -9 c0 -5 -7 -10 -16 -10 -8 0 -12 5 -9 10 3 6 10 10 16 10 5 0 9 -4 9
-10z m25 -100 c-3 -5 -11 -10 -16 -10 -6 0 -7 5 -4 10 3 6 11 10 16 10 6 0 7
-4 4 -10z m55 -14 c0 -2 -8 -10 -17 -17 -16 -13 -17 -12 -4 4 13 16 21 21 21
13z m-440 -25 c0 -5 -7 -12 -16 -15 -14 -5 -15 -4 -4 9 14 17 20 19 20 6z m37
3 c-3 -3 -12 -4 -19 -1 -8 3 -5 6 6 6 11 1 17 -2 13 -5z m413 -8 c0 -2 -8 -10
-17 -17 -16 -13 -17 -12 -4 4 13 16 21 21 21 13z m1519 -22 c43 -21 104 -115
96 -147 -4 -15 2 -35 18 -59 63 -92 89 -109 227 -148 41 -12 93 -30 116 -41
42 -21 86 -69 88 -98 3 -31 34 -87 70 -125 20 -22 36 -46 36 -53 0 -23 51
-113 76 -132 28 -22 30 -31 8 -31 -8 0 -12 5 -9 10 3 6 1 10 -4 10 -6 0 -11
-9 -11 -21 0 -11 -4 -17 -10 -14 -5 3 -10 1 -10 -4 0 -6 5 -11 10 -11 14 0 12
-27 -2 -34 -7 -3 -3 -3 10 0 29 7 28 -8 -3 -41 -20 -22 -22 -30 -12 -45 14
-23 0 -41 -14 -20 -9 12 -10 12 -5 -2 3 -10 9 -25 12 -33 3 -8 2 -15 -2 -15
-5 1 -20 23 -33 50 -13 28 -27 50 -30 50 -3 0 -24 32 -46 71 -22 38 -67 104
-100 145 -33 41 -85 106 -116 145 -30 38 -70 97 -87 132 -46 89 -104 147 -145
147 -40 0 -137 -25 -186 -47 -42 -19 -191 -123 -191 -133 0 -16 39 -118 56
-146 11 -17 48 -78 82 -135 130 -213 150 -246 205 -344 30 -55 65 -126 76
-158 l20 -57 -22 -20 c-11 -11 -17 -20 -13 -20 4 0 -5 -10 -20 -22 -15 -13
-60 -55 -99 -93 -58 -57 -73 -78 -78 -110 -4 -22 -10 -41 -14 -43 -21 -7 -37
-22 -30 -28 4 -4 17 2 30 13 12 11 29 24 39 29 9 5 36 27 60 49 97 90 159 138
168 129 5 -5 15 -54 23 -109 l15 -100 -28 -36 c-16 -19 -48 -51 -72 -69 -60
-47 -188 -178 -188 -192 0 -6 -3 -8 -7 -5 -10 11 -33 -13 -33 -34 0 -11 -5
-19 -10 -19 -6 0 -29 -17 -51 -37 -54 -50 -82 -65 -41 -21 l33 35 -20 44 c-12
24 -21 61 -21 82 0 38 29 104 52 119 10 6 10 10 -2 18 -13 8 -12 10 3 10 9 0
17 5 17 10 0 20 -31 9 -40 -15 -12 -31 -46 -65 -65 -65 -8 0 -21 13 -30 30
-14 27 -14 33 0 62 8 18 20 40 27 49 10 14 3 28 -39 85 -64 88 -73 105 -73
146 0 21 -21 69 -60 140 -33 59 -60 112 -60 119 0 20 -109 249 -119 249 -10 0
-116 -260 -106 -260 2 0 -3 -21 -11 -47 -50 -165 -72 -393 -54 -557 7 -61 16
-118 20 -126 10 -18 23 -85 24 -123 1 -15 6 -25 12 -23 6 2 11 -2 11 -9 0 -22
-38 -4 -49 24 -44 112 -88 353 -88 487 0 187 51 526 105 698 19 61 56 154 82
206 52 103 177 288 256 377 26 31 56 67 65 82 9 14 31 41 49 59 26 28 35 32
52 23 28 -16 39 -13 17 4 -18 13 -14 18 55 84 41 39 81 70 90 71 9 0 31 -7 48
-16z m-1981 -21 c-10 -2 -18 -9 -18 -14 0 -5 -5 -9 -11 -9 -8 0 -8 5 1 15 7 8
20 14 29 14 13 -1 13 -2 -1 -6z m-18 -123 c-8 -5 -19 -10 -25 -10 -5 0 -3 5 5
10 8 5 20 10 25 10 6 0 3 -5 -5 -10z m470 -14 c0 -3 -4 -8 -10 -11 -5 -3 -10
-1 -10 4 0 6 5 11 10 11 6 0 10 -2 10 -4z m-530 -46 c-8 -5 -22 -9 -30 -9 -10
0 -8 3 5 9 27 12 43 12 25 0z m-50 -50 c-8 -5 -22 -9 -30 -9 -10 0 -8 3 5 9
27 12 43 12 25 0z m-900 -49 c0 -5 -12 -12 -27 -15 -34 -8 -108 -65 -140 -108
-28 -39 -65 -156 -132 -423 -69 -275 -81 -334 -82 -421 -1 -80 -13 -98 -24
-35 -9 56 -10 314 -1 389 l8 64 -26 -23 c-18 -16 -26 -32 -26 -56 0 -37 -25
-93 -41 -93 -6 0 -8 8 -5 18 3 9 8 31 12 47 4 17 13 39 19 50 7 11 18 37 25
58 6 21 22 48 34 60 16 15 29 49 41 107 24 113 34 130 124 219 43 42 84 85 92
96 23 32 47 48 97 61 26 7 48 13 50 13 1 1 2 -3 2 -8z m1846 -21 c0 -12 -4
-16 -9 -11 -5 5 -6 14 -3 20 10 15 12 14 12 -9z m-886 -10 c-8 -5 -19 -10 -25
-10 -5 0 -3 5 5 10 8 5 20 10 25 10 6 0 3 -5 -5 -10z m-535 -152 c-8 -134 -10
-150 -35 -200 -58 -116 -84 -203 -121 -398 -21 -113 -64 -302 -94 -420 -78
-304 -95 -414 -107 -690 -5 -129 -10 -259 -10 -289 l0 -53 -23 35 c-30 43 -53
150 -62 280 -4 71 -10 97 -20 97 -9 0 -13 15 -13 51 0 31 -6 56 -15 65 -13 14
-15 13 -15 -4 0 -11 4 -22 10 -24 5 -2 6 -27 2 -63 l-6 -60 -7 50 c-11 74 -10
244 1 380 17 202 64 406 182 785 27 88 80 206 128 284 22 36 40 68 40 71 0 16
64 105 76 105 17 0 18 -22 2 -38 -6 -6 -9 -15 -5 -18 4 -4 23 30 44 74 21 45
41 81 46 82 4 0 5 -46 2 -102z m1315 67 c-7 -9 -15 -13 -19 -10 -3 3 1 10 9
15 21 14 24 12 10 -5z m23 -10 c-3 -9 -8 -14 -10 -11 -3 3 -2 9 2 15 9 16 15
13 8 -4z m-533 -14 c0 -5 -7 -11 -14 -14 -10 -4 -13 -1 -9 9 6 15 23 19 23 5z
m454 -26 c-5 -13 -2 -14 20 -6 14 6 28 6 30 2 3 -5 -8 -11 -24 -15 -17 -3 -30
-12 -30 -20 0 -7 -7 -16 -15 -20 -13 -5 -13 -3 0 18 8 12 12 25 9 29 -3 3 -3
10 1 16 9 16 15 13 9 -4z m-524 -25 c0 -5 -4 -10 -10 -10 -5 0 -10 5 -10 10 0
6 5 10 10 10 6 0 10 -4 10 -10z m494 -5 c-4 -8 -13 -15 -22 -15 -13 0 -12 3 4
15 24 18 25 18 18 0z m-24 -54 c0 -5 -10 -11 -22 -14 -22 -6 -22 -6 -4 8 23
17 26 18 26 6z m-5 -33 c-6 -15 -52 -38 -74 -38 -23 1 17 30 41 30 10 0 18 5
18 10 0 6 4 10 10 10 5 0 7 -6 5 -12z m-103 -51 c-7 -8 -9 -17 -5 -20 3 -4 0
-7 -8 -7 -12 0 -12 -2 0 -9 7 -5 10 -14 7 -20 -9 -14 -36 -15 -36 -1 0 13 44
80 49 75 2 -3 -1 -11 -7 -18z m-742 -45 c3 -3 -8 -2 -25 2 -16 4 -34 12 -40
17 -5 5 6 4 25 -2 19 -7 37 -14 40 -17z m107 22 c-3 -3 -12 -4 -19 -1 -8 3 -5
6 6 6 11 1 17 -2 13 -5z m-44 -11 c-7 -2 -19 -2 -25 0 -7 3 -2 5 12 5 14 0 19
-2 13 -5z m2845 -38 c-3 -3 -9 2 -12 12 -6 14 -5 15 5 6 7 -7 10 -15 7 -18z
m62 -76 c0 -5 -4 -9 -10 -9 -5 0 -10 7 -10 16 0 8 5 12 10 9 6 -3 10 -10 10
-16z m-2236 -4 c-6 -16 -24 -21 -24 -7 0 11 11 22 21 22 5 0 6 -7 3 -15z
m2246 -79 c0 -3 -4 -8 -10 -11 -5 -3 -10 -1 -10 4 0 6 5 11 10 11 6 0 10 -2
10 -4z m-2965 -71 c50 0 106 4 126 8 l36 9 -7 -44 c-4 -23 -27 -91 -53 -149
-25 -58 -53 -130 -61 -160 -27 -88 -46 -271 -47 -434 0 -102 -7 -195 -20 -277
-11 -68 -30 -200 -44 -294 -13 -94 -34 -209 -47 -255 -26 -99 -29 -200 -6
-246 15 -31 15 -31 -12 -36 -23 -5 -27 -10 -23 -31 3 -16 1 -26 -6 -26 -6 0
-11 9 -11 21 0 11 -4 18 -9 15 -8 -5 -26 14 -51 54 -8 12 -11 13 -19 1 -6 -9
-11 -10 -15 -3 -4 6 -13 9 -21 5 -9 -3 -15 1 -15 8 -1 9 -4 8 -11 -3 -14 -25
-24 -22 -38 9 -9 20 -14 118 -16 338 -4 295 -3 316 20 440 13 72 29 164 35
205 18 118 41 207 119 452 53 166 75 291 63 359 l-10 51 27 -9 c14 -4 67 -8
116 -8z m2955 -7 c0 -7 -5 -20 -10 -28 -7 -12 -12 -12 -22 -2 -9 9 -8 15 8 27
24 18 24 18 24 3z m-2360 -53 c0 -8 -4 -15 -10 -15 -5 0 -10 7 -10 15 0 8 5
15 10 15 6 0 10 -7 10 -15z m-1890 -134 c0 -34 -6 -56 -20 -72 l-19 -24 -1 47
c0 52 14 98 30 98 5 0 10 -22 10 -49z m4280 -5 c0 -2 -7 -6 -15 -10 -8 -3 -15
-1 -15 4 0 6 7 10 15 10 8 0 15 -2 15 -4z m13 -91 c6 -5 3 2 -6 17 -21 34 -22
62 -2 54 8 -3 15 -1 15 5 0 6 5 7 11 3 8 -4 8 -8 1 -13 -12 -7 -12 -51 -1 -51
4 0 10 6 13 13 3 6 2 -1 -1 -18 -4 -16 -7 -40 -6 -52 0 -13 -3 -20 -8 -17 -5
3 -9 12 -9 21 0 9 -6 13 -14 10 -9 -4 -17 2 -21 14 -4 10 -10 19 -14 19 -4 0
-8 6 -8 13 0 7 -3 26 -7 42 -7 28 -6 28 20 -10 15 -22 31 -44 37 -50z m-4335
-102 c-5 -44 -28 -40 -28 5 0 21 3 42 7 46 11 11 25 -22 21 -51z m1862 0 c-8
-3 -18 -11 -22 -17 -4 -6 -10 -7 -15 -3 -9 10 16 27 37 26 13 -1 13 -1 0 -6z
m-1860 -177 c0 -11 -5 -34 -12 -52 -10 -27 -8 -36 11 -68 20 -31 21 -41 12
-68 -6 -17 -9 -46 -5 -63 5 -27 1 -33 -36 -58 -23 -15 -46 -25 -50 -22 -5 3
-11 23 -15 46 -6 33 -3 45 13 62 40 43 58 106 52 182 -7 84 -3 106 17 79 7
-10 13 -27 13 -38z m-66 -378 c20 -29 20 -35 -2 -43 -23 -7 -46 -52 -43 -82 1
-13 -6 -26 -18 -32 -34 -19 -51 -41 -51 -69 -1 -36 -45 -91 -61 -75 -17 17 -2
67 31 98 17 16 30 34 30 41 0 6 10 24 22 39 18 24 20 32 10 57 -14 37 -7 55
27 73 35 19 37 19 55 -7z m-174 -366 c0 -15 -4 -32 -8 -38 -10 -16 -100 -63
-106 -56 -21 21 18 83 61 96 11 4 24 14 27 22 9 23 26 7 26 -24z m1970 -28 c0
-8 -4 -12 -10 -9 -5 3 -10 10 -10 16 0 5 5 9 10 9 6 0 10 -7 10 -16z m-85 -24
c3 -5 1 -10 -4 -10 -6 0 -11 5 -11 10 0 6 2 10 4 10 3 0 8 -4 11 -10z m-1995
-85 c0 -8 -8 -15 -19 -15 -10 0 -30 -12 -44 -26 l-26 -26 26 -22 27 -23 -37
-7 c-24 -5 -45 -17 -59 -36 -20 -28 -68 -43 -68 -22 0 13 43 49 67 56 17 6 23
16 25 48 3 38 7 44 48 64 53 28 60 29 60 9z m-266 -230 c-29 -22 -42 -17 -15
6 13 11 26 17 29 14 3 -3 -3 -12 -14 -20z m911 -154 c7 -12 -12 -24 -25 -16
-11 7 -4 25 10 25 5 0 11 -4 15 -9z m-2772 -84 c42 -39 77 -74 77 -79 0 -12
-116 87 -155 131 -42 49 -14 29 78 -52z m3250 13 c-10 -9 -36 -28 -58 -41
l-40 -23 42 48 c23 26 39 53 37 61 -3 7 2 15 13 17 25 5 30 -40 6 -62z m447
-61 c10 -13 81 -49 89 -45 11 7 31 -40 31 -73 0 -35 -30 -78 -108 -157 -71
-73 -103 -130 -105 -190 -1 -24 -5 -44 -9 -44 -28 0 -101 44 -116 70 -11 19
-25 30 -39 30 -13 0 -23 5 -23 11 0 5 -5 7 -10 4 -6 -3 -13 1 -16 9 -3 9 -12
16 -19 16 -15 0 -31 36 -26 60 5 25 40 57 108 97 94 54 116 84 110 147 -4 41
-2 47 8 33 7 -9 20 -17 29 -17 9 0 25 -5 35 -12 10 -6 26 -8 35 -5 15 6 15 10
1 43 -8 20 -15 38 -15 40 0 5 34 -9 40 -17z m-3813 -5 c3 -8 1 -20 -6 -27 -14
-14 -47 15 -37 32 10 16 36 13 43 -5z m4320 -16 c-3 -8 -6 -5 -6 6 -1 11 2 17
5 13 3 -3 4 -12 1 -19z m-1783 -24 c10 -25 1 -27 -19 -4 -15 17 -16 20 -3 20
9 0 19 -7 22 -16z m108 -56 c55 -67 72 -106 40 -89 -17 9 -92 110 -92 124 0
17 21 3 52 -35z m1642 -73 c-24 -37 -27 -25 -7 30 16 41 18 44 21 22 2 -14 -4
-37 -14 -52z m-992 3 c-7 -7 -12 -8 -12 -2 0 6 3 14 7 17 3 4 9 5 12 2 2 -3
-1 -11 -7 -17z m985 -44 c-3 -3 -12 -4 -19 -1 -8 3 -5 6 6 6 11 1 17 -2 13 -5z
m-1026 -34 c10 -6 19 -17 19 -25 0 -8 5 -15 10 -15 6 0 10 -5 10 -11 0 -6 -17
-9 -42 -7 -33 2 -43 7 -42 20 1 10 -4 14 -12 11 -20 -8 -17 14 4 26 22 13 29
13 53 1z m1196 4 c-3 -3 -12 -4 -19 -1 -8 3 -5 6 6 6 11 1 17 -2 13 -5z
m-3793 -210 c15 -14 25 -28 22 -32 -4 -3 -21 8 -39 26 -37 38 -25 43 17 6z
m3081 -100 c30 -15 53 -30 51 -33 -3 -4 -25 -21 -50 -39 -45 -33 -56 -30 -36
9 11 20 -3 28 -15 9 -9 -14 -57 -12 -77 4 -16 12 -14 16 25 44 23 17 43 31 45
32 2 0 28 -12 57 -26z"/>
<path d="M3610 9366 c0 -3 9 -10 20 -16 11 -6 20 -8 20 -6 0 3 -9 10 -20 16
-11 6 -20 8 -20 6z"/>
<path d="M3634 9309 c-3 -5 6 -9 20 -9 31 0 34 6 6 13 -11 3 -23 1 -26 -4z"/>
<path d="M4156 8643 c-6 -14 -5 -15 5 -6 7 7 10 15 7 18 -3 3 -9 -2 -12 -12z"/>
<path d="M4200 8499 c0 -5 5 -7 10 -4 6 3 10 8 10 11 0 2 -4 4 -10 4 -5 0 -10
-5 -10 -11z"/>
<path d="M3170 8476 c0 -2 7 -9 15 -16 13 -11 14 -10 9 4 -5 14 -24 23 -24 12z"/>
<path d="M4135 8400 c3 -5 8 -10 11 -10 2 0 4 5 4 10 0 6 -5 10 -11 10 -5 0
-7 -4 -4 -10z"/>
<path d="M2986 8358 c-9 -36 -6 -62 10 -83 14 -19 15 -19 21 3 5 19 8 20 21
10 13 -11 15 -10 9 5 -4 12 -1 17 9 17 12 0 9 9 -13 34 -33 41 -48 44 -57 14z"/>
<path d="M2790 8355 c0 -8 2 -15 4 -15 2 0 6 7 10 15 3 8 1 15 -4 15 -6 0 -10
-7 -10 -15z"/>
<path d="M4150 8330 c0 -5 5 -10 10 -10 6 0 10 5 10 10 0 6 -4 10 -10 10 -5 0
-10 -4 -10 -10z"/>
<path d="M2760 8300 c-6 -11 -8 -20 -6 -20 3 0 10 9 16 20 6 11 8 20 6 20 -3
0 -10 -9 -16 -20z"/>
<path d="M4071 8242 c0 -4 4 -16 8 -26 7 -19 8 -19 13 1 4 14 0 24 -8 27 -8 3
-14 2 -13 -2z"/>
<path d="M3950 8136 c0 -9 5 -16 10 -16 6 0 10 4 10 9 0 6 -4 13 -10 16 -5 3
-10 -1 -10 -9z"/>
<path d="M2848 8113 c7 -3 16 -2 19 1 4 3 -2 6 -13 5 -11 0 -14 -3 -6 -6z"/>
<path d="M3910 8026 c0 -2 7 -9 15 -16 9 -7 15 -8 15 -2 0 5 -7 12 -15 16 -8
3 -15 4 -15 2z"/>
<path d="M3830 7896 c0 -9 5 -16 10 -16 6 0 10 4 10 9 0 6 -4 13 -10 16 -5 3
-10 -1 -10 -9z"/>
<path d="M3675 7810 c3 -5 8 -10 11 -10 2 0 4 5 4 10 0 6 -5 10 -11 10 -5 0
-7 -4 -4 -10z"/>
<path d="M3705 7790 c3 -5 11 -10 16 -10 6 0 7 5 4 10 -3 6 -11 10 -16 10 -6
0 -7 -4 -4 -10z"/>
<path d="M4658 6973 c7 -3 16 -2 19 1 4 3 -2 6 -13 5 -11 0 -14 -3 -6 -6z"/>
<path d="M4576 6905 c-3 -8 -1 -15 4 -15 6 0 10 4 10 9 0 5 8 12 18 14 13 4
12 5 -4 6 -12 0 -24 -6 -28 -14z"/>
<path d="M4525 6890 c-3 -6 1 -7 9 -4 18 7 21 14 7 14 -6 0 -13 -4 -16 -10z"/>
<path d="M4507 6869 c7 -7 15 -10 18 -7 3 3 -2 9 -12 12 -14 6 -15 5 -6 -5z"/>
<path d="M4580 6845 c0 -8 2 -15 4 -15 2 0 6 7 10 15 3 8 1 15 -4 15 -6 0 -10
-7 -10 -15z"/>
<path d="M4488 6833 c7 -3 16 -2 19 1 4 3 -2 6 -13 5 -11 0 -14 -3 -6 -6z"/>
<path d="M4639 6823 c-13 -16 -12 -17 4 -4 16 13 21 21 13 21 -2 0 -10 -8 -17
-17z"/>
<path d="M4706 6814 c-5 -14 -4 -15 9 -4 17 14 19 20 6 20 -5 0 -12 -7 -15
-16z"/>
<path d="M4430 6810 c0 -5 7 -7 15 -4 8 4 15 8 15 10 0 2 -7 4 -15 4 -8 0 -15
-4 -15 -10z"/>
<path d="M4575 6780 c-3 -5 -1 -10 4 -10 6 0 11 5 11 10 0 6 -2 10 -4 10 -3 0
-8 -4 -11 -10z"/>
<path d="M4776 6775 c4 -8 1 -15 -5 -15 -6 0 -11 -5 -11 -11 0 -8 5 -8 15 1
17 14 20 40 5 40 -5 0 -7 -7 -4 -15z"/>
<path d="M4735 6762 c-5 -4 -17 -16 -25 -26 -15 -19 -14 -19 13 -2 15 10 27
22 27 27 0 11 -2 11 -15 1z"/>
<path d="M4410 6750 c0 -5 7 -10 15 -10 8 0 15 5 15 10 0 6 -7 10 -15 10 -8 0
-15 -4 -15 -10z"/>
<path d="M4535 6730 c-3 -6 1 -7 9 -4 18 7 21 14 7 14 -6 0 -13 -4 -16 -10z"/>
<path d="M4726 6714 c-20 -19 -20 -25 -2 -18 8 3 17 12 20 20 7 18 1 18 -18
-2z"/>
<path d="M4630 6540 c0 -5 7 -7 15 -4 8 4 15 8 15 10 0 2 -7 4 -15 4 -8 0 -15
-4 -15 -10z"/>
<path d="M4546 6504 c-5 -14 -4 -15 9 -4 17 14 19 20 6 20 -5 0 -12 -7 -15
-16z"/>
<path d="M4590 6499 c-22 -18 -22 -19 -3 -10 12 6 25 16 28 21 9 15 3 12 -25
-11z"/>
<path d="M4665 6510 c-3 -5 -1 -10 4 -10 6 0 11 5 11 10 0 6 -2 10 -4 10 -3 0
-8 -4 -11 -10z"/>
<path d="M4598 6473 c7 -3 16 -2 19 1 4 3 -2 6 -13 5 -11 0 -14 -3 -6 -6z"/>
<path d="M4665 6460 c-3 -6 1 -7 9 -4 18 7 21 14 7 14 -6 0 -13 -4 -16 -10z"/>
<path d="M4555 6450 c3 -5 -3 -13 -12 -19 -16 -9 -16 -10 -1 -11 9 0 18 6 21
13 3 9 8 9 21 -2 12 -11 20 -11 28 -3 12 12 7 15 -40 25 -12 3 -20 1 -17 -3z"/>
<path d="M4475 6400 c-8 -13 15 -13 35 0 12 8 11 10 -7 10 -12 0 -25 -4 -28
-10z"/>
<path d="M4535 6400 c-8 -13 5 -13 25 0 13 8 13 10 -2 10 -9 0 -20 -4 -23 -10z"/>
<path d="M4416 6385 c-3 -8 -1 -15 4 -15 6 0 10 7 10 15 0 8 -2 15 -4 15 -2 0
-6 -7 -10 -15z"/>
<path d="M4460 6360 c0 -5 5 -10 10 -10 6 0 10 5 10 10 0 6 -4 10 -10 10 -5 0
-10 -4 -10 -10z"/>
<path d="M4498 6363 c7 -3 16 -2 19 1 4 3 -2 6 -13 5 -11 0 -14 -3 -6 -6z"/>
<path d="M5760 6995 c0 -7 58 -35 72 -35 7 1 -3 9 -22 20 -35 19 -50 24 -50
15z"/>
<path d="M5667 6879 c7 -7 15 -10 18 -7 3 3 -2 9 -12 12 -14 6 -15 5 -6 -5z"/>
<path d="M5462 6688 c-6 -6 -12 -21 -11 -32 0 -15 2 -17 6 -6 3 8 10 18 16 21
5 4 8 12 6 18 -3 9 -8 8 -17 -1z"/>
<path d="M5277 6473 c-4 -3 -7 -11 -7 -17 0 -6 5 -5 12 2 6 6 9 14 7 17 -3 3
-9 2 -12 -2z"/>
<path d="M5311 6464 c0 -11 3 -14 6 -6 3 7 2 16 -1 19 -3 4 -6 -2 -5 -13z"/>
<path d="M4856 5965 c-3 -8 -14 -15 -25 -15 -11 0 -21 -9 -25 -22 -9 -34 -7
-48 5 -48 6 0 9 6 6 13 -3 7 2 22 10 32 13 19 14 18 7 -9 -5 -22 -4 -28 7 -24
8 3 16 13 18 24 2 10 8 22 15 26 8 6 8 8 -1 8 -7 0 -10 7 -7 15 4 8 4 15 1 15
-3 0 -7 -7 -11 -15z"/>
<path d="M4740 5766 c0 -2 7 -6 15 -10 8 -3 15 -1 15 4 0 6 -7 10 -15 10 -8 0
-15 -2 -15 -4z"/>
<path d="M4760 5674 c-25 -13 -25 -14 -2 -14 12 0 22 4 22 9 0 5 8 12 18 14
11 3 12 5 2 5 -8 0 -26 -6 -40 -14z"/>
<path d="M4722 5630 c-10 -17 -10 -20 3 -20 9 0 18 7 21 15 7 18 31 20 36 3 3
-7 7 -6 11 5 10 26 -54 23 -71 -3z"/>
<path d="M4706 5385 c4 -9 0 -15 -10 -15 -9 0 -16 -7 -16 -15 0 -8 5 -15 12
-15 6 0 8 3 5 7 -12 12 27 32 40 21 18 -15 16 -2 -3 16 -20 20 -35 21 -28 1z"/>
<path d="M4648 5353 c7 -3 16 -2 19 1 4 3 -2 6 -13 5 -11 0 -14 -3 -6 -6z"/>
<path d="M4725 5340 c3 -5 8 -10 11 -10 2 0 4 5 4 10 0 6 -5 10 -11 10 -5 0
-7 -4 -4 -10z"/>
<path d="M4620 5274 c0 -3 6 -12 14 -19 12 -12 15 -12 20 1 9 23 8 24 -14 24
-11 0 -20 -3 -20 -6z"/>
<path d="M4648 5203 c6 -2 18 -2 25 0 6 3 1 5 -13 5 -14 0 -19 -2 -12 -5z"/>
<path d="M4626 5175 c-3 -8 -2 -15 3 -15 5 0 14 7 21 15 10 12 10 15 -3 15 -8
0 -17 -7 -21 -15z"/>
<path d="M4560 5030 c0 -5 5 -10 10 -10 6 0 10 5 10 10 0 6 -4 10 -10 10 -5 0
-10 -4 -10 -10z"/>
<path d="M4470 4708 c0 -4 4 -8 9 -8 5 0 12 -8 14 -17 3 -12 5 -9 6 8 1 17 -4
26 -14 26 -8 0 -15 -4 -15 -9z"/>
<path d="M4514 4691 c5 -8 56 -3 56 5 0 2 -14 4 -31 4 -16 0 -28 -4 -25 -9z"/>
<path d="M4518 4653 c7 -3 16 -2 19 1 4 3 -2 6 -13 5 -11 0 -14 -3 -6 -6z"/>
<path d="M4518 4633 c6 -2 18 -2 25 0 6 3 1 5 -13 5 -14 0 -19 -2 -12 -5z"/>
<path d="M4510 4610 c0 -5 5 -10 10 -10 6 0 10 5 10 10 0 6 -4 10 -10 10 -5 0
-10 -4 -10 -10z"/>
<path d="M4628 4356 c-10 -7 -18 -16 -18 -19 0 -12 28 4 34 19 6 17 6 17 -16
0z"/>
<path d="M4622 4315 c-11 -13 -8 -15 20 -14 18 1 25 3 15 6 -9 2 -15 9 -12 14
10 15 -9 10 -23 -6z"/>
<path d="M4625 4239 c-12 -18 3 -22 20 -5 14 14 14 16 1 16 -8 0 -18 -5 -21
-11z"/>
<path d="M4698 4213 c7 -3 16 -2 19 1 4 3 -2 6 -13 5 -11 0 -14 -3 -6 -6z"/>
<path d="M4790 3830 c0 -5 5 -10 11 -10 5 0 7 5 4 10 -3 6 -8 10 -11 10 -2 0
-4 -4 -4 -10z"/>
<path d="M6153 6636 c4 -11 58 -28 66 -21 2 3 -1 11 -7 17 -14 14 -63 17 -59
4z"/>
<path d="M6260 6576 c0 -8 -13 -26 -30 -39 -26 -22 -39 -47 -25 -47 16 0 92
65 88 76 -7 18 -33 26 -33 10z"/>
<path d="M7025 5840 c3 -5 8 -10 11 -10 2 0 4 5 4 10 0 6 -5 10 -11 10 -5 0
-7 -4 -4 -10z"/>
<path d="M6260 5104 c0 -8 5 -12 10 -9 6 3 10 10 10 16 0 5 -4 9 -10 9 -5 0
-10 -7 -10 -16z"/>
<path d="M3281 4944 c0 -11 3 -14 6 -6 3 7 2 16 -1 19 -3 4 -6 -2 -5 -13z"/>
<path d="M3310 4725 c0 -8 4 -15 10 -15 5 0 7 7 4 15 -4 8 -8 15 -10 15 -2 0
-4 -7 -4 -15z"/>
</g>
</svg>
